<svg xmlns="http://www.w3.org/2000/svg" xmlns:xlink="http://www.w3.org/1999/xlink" version="1.1" width="482.0373821735306" height="403.73666195868685" viewBox="-0.5186910867653003 -0.31869103908158447 482.0373821735306 403.73666195868685">
  <!-- Exported by Scratch - http://scratch.mit.edu/ -->
  <path id="ID0.7787248510867357" fill="#666666" stroke="#666666" stroke-width="1.4291109294712612" d="M 1 332.1903 L 480 332.1903 L 480 401.8993 L 1 401.8993 L 1 332.1903 Z "/>
  <path id="ID0.814058180898428" fill="none" stroke="#666666" stroke-width="2" d="M 434 174 L 479.5 174.5 L 479.5 333.5 L 320.5 333.5 L 321 309 L 321.15 333.05 L 162.15 333.5 L 162 229 L 162 334 L 1.7 332.7 L 2.15 173.7 L 161.15 174.15 L 161.75 188 L 161.7 174.5 L 320.7 174.05 L 321 249 L 320.5 174.5 L 357.25 174.4 "/>
  <path id="ID0.814058180898428" fill="none" stroke="#666666" stroke-width="2" d="M 433.75 161.2 L 479.25 160.7 L 479.25 1.7 L 320.25 1.7 L 320.75 26.2 L 320.9 2.15 L 161.9 1.7 L 161.75 106.2 L 161.75 1.2 L 1.45 2.5 L 1.9 161.5 L 160.9 161.05 L 161.25 147.5 L 161.45 160.7 L 320.45 161.15 L 320.75 86.2 L 320.25 160.7 L 359.75 160.65 "/>
  <path id="ID0.722780198790133" fill="#666666" stroke="#666666" stroke-width="2" d="M 1 162 L 359.5 160.65 L 359.5 174 L 1 175 L 1 162 Z "/>
  <path id="ID0.6187556474469602" fill="#666666" stroke="#666666" stroke-width="2" d="M 434 162 L 480 162 L 480 174 L 434 174 L 434 162 Z "/>
  <path id="ID0.8438660050742328" fill="#666666" stroke="#666666" stroke-width="2" d="M 138 226 L 161.5 226 L 161.5 236.5 L 138 226 Z "/>
  <path id="ID0.151263443287462" fill="#666666" stroke="#666666" stroke-width="2" d="M 95.5 310.75 L 120.75 310.75 L 120.75 331.25 L 95.5 331.25 L 95.5 310.75 Z "/>
  <path id="ID0.91893793316558" fill="#666666" stroke="#666666" stroke-width="2.2638462845343543" d="M 143.25 293 L 160.75 293 L 160.75 331.5 L 143.25 331.5 L 143.25 293 Z "/>
  <path id="ID0.3458041911944747" fill="#666666" stroke="#666666" stroke-width="2" d="M 2.25 308.75 L 21 308.75 L 21 331.75 L 2.25 331.75 L 2.25 308.75 Z "/>
  <path id="ID0.7037383732385933" fill="#666666" stroke="#666666" stroke-width="2" d="M 33.5 325.5 L 51.75 325.5 L 51.75 331.5 L 33.5 331.5 L 33.5 325.5 Z "/>
  <path id="ID0.03133193589746952" fill="#666666" stroke="#666666" stroke-width="2" stroke-linecap="round" d="M 2.5 240.5 L 15.75 240.5 L 2.5 246.25 L 2.5 240.5 Z "/>
  <path id="ID0.5027140122838318" fill="#666666" stroke="#666666" stroke-width="2" stroke-linecap="round" d="M 63.7 229 L 92.2 229 L 77.2 239 L 63.7 229 Z "/>
  <path id="ID0.8438660050742328" fill="#666666" stroke="#666666" stroke-width="2" d="M 163.5 226 L 187 226 L 163.5 236.5 L 163.5 226 Z "/>
  <path id="ID0.8553043948486447" fill="#666666" stroke="#666666" stroke-width="2" stroke-linecap="round" d="M 214 252.5 L 245.5 252.5 L 231.25 261 L 214 252.5 Z "/>
  <path id="ID0.8175916029140353" fill="none" stroke="#666666" stroke-width="2" stroke-linecap="round" d="M 233.75 256.25 L 233.75 175.75 "/>
  <path id="ID0.3657471304759383" fill="none" stroke="#666666" stroke-width="2" stroke-linecap="round" d="M 321 307 L 299.25 307 L 299.25 229.25 "/>
  <path id="ID0.4510833960957825" fill="#666666" stroke="#666666" stroke-width="2" stroke-linecap="round" d="M 278 284.75 L 298.5 284.75 L 298.5 294.25 L 278 284.75 Z "/>
  <path id="ID0.5027140122838318" fill="#666666" stroke="#666666" stroke-width="2" stroke-linecap="round" d="M 269.75 229 L 298.25 229 L 298.25 235.75 L 269.75 229 Z "/>
  <path id="ID0.8600101419724524" fill="#666666" stroke="#666666" stroke-width="2" stroke-linecap="round" d="M 396 283.5 L 429 283.5 L 412.5 296.5 L 396 283.5 Z "/>
  <path id="ID0.4969164286740124" fill="#666666" stroke="#666666" stroke-width="2" stroke-linecap="round" d="M 32 282 L 43.5 273 L 54.5 282 L 32 282 Z "/>
  <path id="ID0.8600101419724524" fill="#666666" stroke="#666666" stroke-width="2" stroke-linecap="round" d="M 175 311.4 L 208 311.4 L 191.5 324.4 L 175 311.4 Z "/>
  <path id="ID0.8600101419724524" fill="#666666" stroke="#666666" stroke-width="2" stroke-linecap="round" d="M 229.5 309.9 L 262.5 309.9 L 246 322.9 L 229.5 309.9 Z "/>
  <path id="ID0.4510833960957825" fill="#666666" stroke="#666666" stroke-width="2" stroke-linecap="round" d="M 457.5 263.25 L 478 263.25 L 478 272.75 L 457.5 263.25 Z "/>
  <path id="ID0.7127552353776991" fill="#666666" stroke="#666666" stroke-width="3.0373821735306006" d="M 455.4913 174.1763 L 478.5495 174.1763 L 478.5495 261.3447 L 455.4913 261.3447 L 455.4913 174.1763 Z "/>
  <path id="ID0.8600101419724524" fill="#666666" stroke="#666666" stroke-width="2" stroke-linecap="round" d="M 335.25 293.4 L 368.25 293.4 L 351.75 306.4 L 335.25 293.4 Z "/>
  <path id="ID0.8600101419724524" fill="#666666" stroke="#666666" stroke-width="2" stroke-linecap="round" d="M 394.25 139.8 L 427.25 139.8 L 410.75 152.8 L 394.25 139.8 Z "/>
  <path id="ID0.5027140122838318" fill="#666666" stroke="#666666" stroke-width="2" stroke-linecap="round" d="M 450 109.95 L 478.5 109.95 L 478.5 116.7 L 450 109.95 Z "/>
  <path id="ID0.8600101419724524" fill="#666666" stroke="#666666" stroke-width="2" stroke-linecap="round" d="M 364.75 85.35 L 397.75 85.35 L 381.25 98.35 L 364.75 85.35 Z "/>
  <path id="ID0.4133491041138768" fill="none" stroke="#666666" stroke-width="2" stroke-linecap="round" d="M 238.5 83 L 238.5 106.5 "/>
  <path id="ID0.4133491041138768" fill="none" stroke="#666666" stroke-width="2" stroke-linecap="round" d="M 238.5 52 C 238.5 52 238.5 2 238.5 2 "/>
  <path id="ID0.8438660050742328" fill="#666666" stroke="#666666" stroke-width="2" d="M 239.75 95.8 L 263.25 95.8 L 239.75 106.3 L 239.75 95.8 Z "/>
  <path id="ID0.8438660050742328" fill="#666666" stroke="#666666" stroke-width="2" d="M 320.75 83.75 L 297.25 83.75 L 320.75 94.25 L 320.75 83.75 Z "/>
  <path id="ID0.8600101419724524" fill="#666666" stroke="#666666" stroke-width="2" stroke-linecap="round" d="M 192 142.25 L 225 142.25 L 208.5 155.25 L 192 142.25 Z "/>
  <path id="ID0.4969164286740124" fill="#666666" stroke="#666666" stroke-width="2" stroke-linecap="round" d="M 16.2 18.55 L 27.7 9.55 L 38.7 18.55 L 16.2 18.55 Z "/>
  <path id="ID0.4969164286740124" fill="#666666" stroke="#666666" stroke-width="2" stroke-linecap="round" d="M 15.75 58.6 L 27.25 67.6 L 38.25 58.6 L 15.75 58.6 Z "/>
  <path id="ID0.151263443287462" fill="#666666" stroke="#666666" stroke-width="2" d="M 43.25 141.25 L 68.5 141.25 L 68.5 161.75 L 43.25 161.75 L 43.25 141.25 Z "/>
  <path id="ID0.91893793316558" fill="#666666" stroke="#666666" stroke-width="2.2638462845343543" d="M 3.25 123.25 L 20.75 123.25 L 20.75 161.75 L 3.25 161.75 L 3.25 123.25 Z "/>
  <path id="ID0.8600101419724524" fill="#666666" stroke="#666666" stroke-width="2" stroke-linecap="round" d="M 95.5 111.9 L 128.5 111.9 L 112 124.9 L 95.5 111.9 Z "/>
  <path id="ID0.8438660050742328" fill="#666666" stroke="#666666" stroke-width="2" d="M 161.25 81.6 L 137.75 81.6 L 161.25 92.1 L 161.25 81.6 Z "/>
  <path id="ID0.8600101419724524" fill="#666666" stroke="#666666" stroke-width="2" stroke-linecap="round" d="M 59.5 65.95 L 92.5 65.95 L 76 78.95 L 59.5 65.95 Z "/>
  <path id="ID0.9930452462285757" fill="none" stroke="#CCFFFF" stroke-width="2" stroke-linecap="round" d="M 9.5 313 L 9.5 339.5 L 107.5 339.5 L 107.5 318 L 101.5 318 L 101.5 313.5 "/>
  <path id="ID0.1574307712726295" fill="none" stroke="#CCFFFF" stroke-width="2" stroke-linecap="round" d="M 107.5 318 L 113 318 L 113 314 "/>
  <path id="ID0.7844882225617766" fill="none" stroke="#CCFFFF" stroke-width="2" stroke-linecap="round" d="M 160 298.5 L 147 298.5 L 147 340 "/>
  <path id="ID0.6065320074558258" fill="none" stroke="#CCFFFF" stroke-width="2" stroke-linecap="round" d="M 147 341 L 190.5 341 L 190.5 333.5 "/>
  <path id="ID0.5154765015468001" fill="none" stroke="#CCFFFF" stroke-width="2" stroke-linecap="round" d="M 190.5 333.5 L 244.5 333.5 L 244.5 340.5 "/>
  <path id="ID0.36078919703140855" fill="none" stroke="#CCFFFF" stroke-width="2" stroke-linecap="round" d="M 244.5 341.5 L 456.5 341.5 "/>
  <path id="ID0.9470890127122402" fill="none" stroke="#CCFFFF" stroke-width="2" stroke-linecap="round" d="M 151 229 L 173 229 "/>
  <path id="ID0.6969125047326088" fill="none" stroke="#CCFFFF" stroke-width="2" stroke-linecap="round" d="M 161.5 229.5 L 161.5 234.5 "/>
  <path id="ID0.45434862887486815" fill="none" stroke="#CCFFFF" stroke-width="2" stroke-linecap="round" d="M 66.5 229.5 L 86 229.5 "/>
  <path id="ID0.07535764435306191" fill="none" stroke="#CCFFFF" stroke-width="2" stroke-linecap="round" d="M 76 229.5 L 76 235 "/>
  <path id="ID0.8476519756950438" fill="none" stroke="#CCFFFF" stroke-width="2" stroke-linecap="round" d="M 3 241 L 10 241 "/>
  <path id="ID0.8167446777224541" fill="none" stroke="#CCFFFF" stroke-width="2" stroke-linecap="round" d="M 220 254.5 L 237 254.5 "/>
  <path id="ID0.513439308386296" fill="none" stroke="#CCFFFF" stroke-width="2" stroke-linecap="round" d="M 228.5 254.5 L 228.5 259.5 "/>
  <path id="ID0.6920040599070489" fill="none" stroke="#CCFFFF" stroke-width="2" stroke-linecap="round" d="M 183.5 312.5 L 200 312.5 "/>
  <path id="ID0.561134843621403" fill="none" stroke="#CCFFFF" stroke-width="2" stroke-linecap="round" d="M 191.5 313 L 191.5 321 "/>
  <path id="ID0.208695518784225" fill="none" stroke="#990000" stroke-width="2" stroke-linecap="round" d="M 236 310.5 L 255.5 310.5 "/>
  <path id="ID0.44188635190948844" fill="none" stroke="#990000" stroke-width="2" stroke-linecap="round" d="M 245.5 311.5 L 245.5 319.5 "/>
  <path id="ID0.22094992781057954" fill="none" stroke="#99FFFF" stroke-width="2" stroke-linecap="round" d="M 280 230 L 298 230 "/>
  <path id="ID0.9410300827585161" fill="none" stroke="#99FFFF" stroke-width="2" stroke-linecap="round" d="M 284.5 285.5 L 295.5 285.5 "/>
  <path id="ID0.7377490638755262" fill="none" stroke="#99FFFF" stroke-width="2" stroke-linecap="round" d="M 341 295 L 362 295 "/>
  <path id="ID0.21890857117250562" fill="none" stroke="#99FFFF" stroke-width="2" stroke-linecap="round" d="M 351 295.5 L 351 302.5 "/>
  <path id="ID0.07206873828545213" fill="none" stroke="#99FFFF" stroke-width="2" stroke-linecap="round" d="M 401 285 L 423 285 "/>
  <path id="ID0.16219546366482973" fill="none" stroke="#99FFFF" stroke-width="2" stroke-linecap="round" d="M 412 285 L 412 294.5 "/>
  <path id="ID0.29254316445440054" fill="none" stroke="#99FFFF" stroke-width="2" stroke-linecap="round" d="M 400.5 141.5 L 421 141.5 "/>
  <path id="ID0.417405528947711" fill="none" stroke="#99FFFF" stroke-width="2" stroke-linecap="round" d="M 410.5 141.5 L 410.5 150 "/>
  <path id="ID0.32777192909270525" fill="none" stroke="#99FFFF" stroke-width="2" stroke-linecap="round" d="M 457.5 111.5 L 478 111.5 "/>
  <path id="ID0.9232215438969433" fill="none" stroke="#99FFFF" stroke-width="2" stroke-linecap="round" d="M 369.5 86.5 L 391 86.5 "/>
  <path id="ID0.5822494779713452" fill="none" stroke="#99FFFF" stroke-width="2" stroke-linecap="round" d="M 379.5 87.5 L 379.5 95 "/>
  <path id="ID0.7885867338627577" fill="none" stroke="#99FFFF" stroke-width="2" stroke-linecap="round" d="M 305.5 84.5 L 319.5 84.5 "/>
  <path id="ID0.7414240702055395" fill="none" stroke="#99FFFF" stroke-width="2" stroke-linecap="round" d="M 239.5 98.5 L 255 98.5 "/>
  <path id="ID0.7975991787388921" fill="none" stroke="#99FFFF" stroke-width="2" stroke-linecap="round" d="M 198 144 L 218 144 "/>
  <path id="ID0.9836335363797843" fill="none" stroke="#99FFFF" stroke-width="2" stroke-linecap="round" d="M 207.5 144 L 207.5 152.5 "/>
  <path id="ID0.9784561134874821" fill="none" stroke="#99FFFF" stroke-width="2" stroke-linecap="round" d="M 102 113 L 121 113 "/>
  <path id="ID0.11954384949058294" fill="none" stroke="#99FFFF" stroke-width="2" stroke-linecap="round" d="M 112 113.5 L 112 121.5 "/>
  <path id="ID0.6528172087855637" fill="none" stroke="#99FFFF" stroke-width="2" stroke-linecap="round" d="M 466 175 L 466 248 L 473 248 L 473 263 "/>
  <path id="ID0.29906904604285955" fill="none" stroke="#99FFFF" stroke-width="2" stroke-linecap="round" d="M 466 190 L 474 190 "/>
  <path id="ID0.9782069753855467" fill="none" stroke="#99FFFF" stroke-width="2" stroke-linecap="round" d="M 465 174 L 460 174 "/>
  <path id="ID0.22340366384014487" fill="none" stroke="#99FFFF" stroke-width="2" stroke-linecap="round" d="M 460 173 L 460 168 L 441 168 "/>
  <path id="ID0.23255839571356773" fill="none" stroke="#99FFFF" stroke-width="2" stroke-linecap="round" d="M 476 189 L 476 167 "/>
  <path id="ID0.28196920780465007" fill="none" stroke="#99FFFF" stroke-width="2" stroke-linecap="round" d="M 357 164.5 L 308.5 164.5 "/>
  <path id="ID0.5406975303776562" fill="none" stroke="#99FFFF" stroke-width="2" stroke-linecap="round" d="M 308 165.5 L 308 170.5 "/>
  <path id="ID0.9575398149900138" fill="none" stroke="#99FFFF" stroke-width="2" stroke-linecap="round" d="M 144 82.5 L 158 82.5 "/>
  <path id="ID0.2827313649468124" fill="none" stroke="#99FFFF" stroke-width="2" stroke-linecap="round" d="M 67 68 L 84 68 "/>
  <path id="ID0.25295245833694935" fill="none" stroke="#99FFFF" stroke-width="2" stroke-linecap="round" d="M 75.5 68 L 75.5 77.5 "/>
  <path id="ID0.7575235408730805" fill="none" stroke="#99FFFF" stroke-width="2" stroke-linecap="round" d="M 308 171.5 L 208.5 171.5 L 208.5 165 L 203.2 165 L 203.2 171.5 L 160.75 171.5 L 160.75 165 L 141.75 165 L 141.75 172 L 130.5 172 L 130.5 163.2 L 116.5 163.2 L 116.5 169 L 64 169 L 64 146 L 48 146 L 48 170 L 6 170 L 5.75 127.25 L 17.5 127 "/>
  <path id="ID0.5003237328492105" fill="#7F7F7F" stroke="#7F7F7F" stroke-width="2" d="M 188 2.5 L 219 2.5 L 219 20.5 L 188 20.5 L 188 2.5 Z "/>
  <path id="ID0.6214686403982341" fill="none" stroke="#99FFFF" stroke-width="2" stroke-linecap="round" d="M 202 4.5 L 202 17.5 L 194 9 "/>
  <path id="ID0.6214686403982341" fill="none" stroke="#99FFFF" stroke-width="2" stroke-linecap="round" d="M 204 4.6 L 204 17.6 L 212 9.1 "/>
  <g id="ID0.15901321871206164">
    <path id="ID0.8600101419724524" fill="#666666" stroke="#666666" stroke-width="2" stroke-linecap="round" d="M 381.25 223.6 L 414.25 223.6 L 397.75 236.6 L 381.25 223.6 Z "/>
    <path id="ID0.9166999547742307" fill="none" stroke="#99FFFF" stroke-width="2" stroke-linecap="round" d="M 385.5 224.5 L 408 224.5 "/>
    <path id="ID0.6732277008704841" fill="none" stroke="#99FFFF" stroke-width="2" stroke-linecap="round" d="M 397 225 L 397 235.5 "/>
  </g>
  <g id="ID0.15901321871206164">
    <path id="ID0.8600101419724524" fill="#666666" stroke="#666666" stroke-width="2" stroke-linecap="round" d="M 349.1 191 L 382.1 191 L 365.6 204 L 349.1 191 Z "/>
    <path id="ID0.9166999547742307" fill="none" stroke="#99FFFF" stroke-width="2" stroke-linecap="round" d="M 353.35 191.9 L 375.85 191.9 "/>
    <path id="ID0.6732277008704841" fill="none" stroke="#99FFFF" stroke-width="2" stroke-linecap="round" d="M 364.85 192.4 L 364.85 202.9 "/>
  </g>
</svg>