<svg version="1.1" xmlns="http://www.w3.org/2000/svg" xmlns:xlink="http://www.w3.org/1999/xlink" width="42.80479" height="69.50194" viewBox="0,0,42.80479,69.50194"><defs><radialGradient cx="281.68906" cy="177.62" r="41.713" gradientUnits="userSpaceOnUse" id="color-1"><stop offset="0" stop-color="#222222"/><stop offset="1" stop-color="#171717"/></radialGradient><radialGradient cx="296.38656" cy="167.7991" r="61.782" gradientUnits="userSpaceOnUse" id="color-2"><stop offset="0" stop-color="#222222"/><stop offset="1" stop-color="#171717"/></radialGradient><radialGradient cx="270.13396" cy="152.239" r="50.4269" gradientUnits="userSpaceOnUse" id="color-3"><stop offset="0" stop-color="#ffffff"/><stop offset="1" stop-color="#000000"/></radialGradient></defs><g transform="translate(-260.83754,-135.5432)"><g data-paper-data="{&quot;isPaintingLayer&quot;:true}" fill-rule="nonzero" stroke="none" stroke-linejoin="miter" stroke-miterlimit="10" stroke-dasharray="" stroke-dashoffset="0" style="mix-blend-mode: normal"><path d="M289.74626,156.2863c0.8477,7.8055 -0.4154,14.7785 -2.696,23.6462c-2.2805,8.8678 -4.5463,15.3992 -8.9925,21.8038c-1.7923,2.5814 -5.6114,4.0415 -8.5565,2.9352c-3.1954,-0.6906 -6.2133,-3.9439 -6.6332,-7.3801c-0.9714,-7.9108 0.4155,-14.7785 2.696,-23.6462c2.2805,-8.8677 4.519,-15.5578 8.9925,-21.8037c2.0006,-2.8144 5.7745,-3.6259 8.581,-2.5578c3.2051,0.691 6.2417,3.5029 6.6087,7.0026z" data-paper-data="{&quot;index&quot;:null}" fill="url(#color-1)" stroke-width="2.36307" stroke-linecap="butt"/><path d="M302.10726,149.889c1.5167,3.0428 2.326,9.711 0.4275,13.9874c-2.8011,6.3063 -7.1962,8.6342 -10.6896,9.4767c-7.7087,2.2029 -15.3948,2.3437 -22.1514,-0.549c-3.7169,-1.5928 -9.914,-6.1712 -8.7015,-12.3415c1.3401,-6.7841 9.4654,-9.3568 14.3676,-13.7592c4.0136,-3.8917 8.3429,-11.5844 12.4008,-11.1419c5.8564,0.6437 10.6595,6.9563 14.3466,14.3275z" data-paper-data="{&quot;index&quot;:null}" fill="url(#color-2)" stroke-width="2.18641" stroke-linecap="round"/><path d="M298.85776,152.7874c1.1122,2.1538 0.8477,9.8203 -1.126,11.241c-7.0752,5.0582 -14.1491,4.7106 -20.7109,3.7514c-5.6217,-0.8262 -11.2842,-3.7788 -15.6522,-9.4284c-1.0971,-1.4198 0.5334,-5.8013 1.3064,-8.1953c1.9283,-3.8663 4.165,-7.949 6.2659,-9.3558c5.3539,-3.4868 11.6346,-5.8457 15.7381,-4.17c5.6503,2.3223 10.5185,8.2953 14.1787,16.1571z" data-paper-data="{&quot;index&quot;:null}" fill="url(#color-3)" stroke-width="2.18641" stroke-linecap="round"/></g></g></svg>