<svg version="1.1" xmlns="http://www.w3.org/2000/svg" xmlns:xlink="http://www.w3.org/1999/xlink" width="45.38913" height="69.00879" viewBox="0,0,45.38913,69.00879"><defs><linearGradient x1="235.36735" y1="237.2471" x2="202.67675" y2="236.5718" gradientUnits="userSpaceOnUse" id="color-1"><stop offset="0" stop-color="#303131"/><stop offset="1" stop-color="#0d0d0d"/></linearGradient><radialGradient cx="223.08355" cy="288.8585" r="33.4524" gradientUnits="userSpaceOnUse" id="color-2"><stop offset="0" stop-color="#303131"/><stop offset="1" stop-color="#0d0d0d"/></radialGradient></defs><g transform="translate(-195.87216,-236.72325)"><g data-paper-data="{&quot;isPaintingLayer&quot;:true}" fill-rule="nonzero" stroke="none" stroke-linecap="round" stroke-linejoin="miter" stroke-miterlimit="10" stroke-dasharray="" stroke-dashoffset="0" style="mix-blend-mode: normal"><g data-paper-data="{&quot;index&quot;:null}"><path d="M230.98755,295.617c-2.5594,7.3611 -12.4509,6.4894 -18.7207,6.4273c-3.3573,-0.0361 -8.2074,-2.149 -8.7048,-6.3917c-1.9897,-16.9707 -2.9486,-35.4563 2.2781,-51.277c2.1786,-6.9231 10.8083,-7.8091 16.9173,-7.6326c3.9651,0.1133 9.0631,3.5052 9.8837,8.3274c2.1741,16.6003 3.7436,35.0273 -1.6536,50.5466z" fill="url(#color-1)" stroke-width="6.8598"/><path d="M240.38205,301.6203c-3.4117,2.0897 -7.3382,3.2471 -11.4626,3.6092c-8.8604,0.7861 -17.8476,0.6573 -26.6982,-0.4381c-2.2235,-0.244 -5.676,-0.7488 -5.9544,-3.4387c-0.7557,-7.3153 -0.7566,-15.9319 3.0352,-21.3613c4.3965,-6.2817 11.8568,-9.9776 18.6729,-9.6246c7.3844,0.4033 14.9571,5.2739 20.4133,11.6899c3.1431,3.6971 2.3074,10.5733 2.776,15.7093c0.1219,1.3207 0.3199,3.1861 -0.7822,3.8543z" fill="url(#color-2)" stroke-width="6.3435"/></g></g></g></svg>