<svg version="1.1" xmlns="http://www.w3.org/2000/svg" xmlns:xlink="http://www.w3.org/1999/xlink" width="54.95643" height="67.15608" viewBox="0,0,54.95643,67.15608"><defs><linearGradient x1="271.89675" y1="233.5692" x2="240.26455" y2="232.9345" gradientUnits="userSpaceOnUse" id="color-1"><stop offset="0" stop-color="#303131"/><stop offset="1" stop-color="#0d0d0d"/></linearGradient><radialGradient cx="282.28285" cy="281.0015" r="34.4625" gradientUnits="userSpaceOnUse" id="color-2"><stop offset="0" stop-color="#303131"/><stop offset="1" stop-color="#0d0d0d"/></radialGradient></defs><g transform="translate(-239.54461,-233.12507)"><g data-paper-data="{&quot;isPaintingLayer&quot;:true}" fill-rule="nonzero" stroke="none" stroke-linecap="round" stroke-linejoin="miter" stroke-miterlimit="10" stroke-dasharray="" stroke-dashoffset="0" style="mix-blend-mode: normal"><g data-paper-data="{&quot;index&quot;:null}"><path d="M268.06355,291.6783c-2.2864,7.4619 -12.3974,6.457 -18.6423,6.3916c-3.3439,-0.0379 -8.2295,-2.2002 -8.6739,-6.3719c-1.7661,-16.6559 -1.9414,-34.2406 1.913,-49.9611c1.7621,-5.8353 8.5954,-7.2659 13.2137,-8.1168c3.8685,-0.6933 10.3597,-1.4079 11.4636,3.4752c3.958,17.5351 5.8453,37.8304 0.7259,54.583z" fill="url(#color-1)" stroke-width="6.83281"/><path d="M293.70605,296.5802c-3.0269,1.8809 -6.5105,2.9227 -10.1698,3.2486c-7.861,0.7076 -15.8345,0.5916 -23.687,-0.3943c-1.9726,-0.2197 -5.2001,-0.6598 -5.2827,-3.0952c-0.2755,-8.112 -0.7328,-17.9785 3.6262,-23.3287c4.6952,-5.2151 12.639,-4.123 18.4092,-2.3861c5.9955,1.7976 11.391,6.3773 15.8922,12.118c1.9787,2.5363 1.4684,6.9166 1.9059,10.3684c0.1418,1.1065 0.2838,2.8678 -0.694,3.4693z" fill="url(#color-2)" stroke-width="5.67788"/></g></g></g></svg>