<svg version="1.1" xmlns="http://www.w3.org/2000/svg" xmlns:xlink="http://www.w3.org/1999/xlink" width="43.43063" height="69.18945" viewBox="0,0,43.43063,69.18945"><defs><radialGradient cx="197.81619" cy="192.2873" r="42.559" gradientUnits="userSpaceOnUse" id="color-1"><stop offset="0" stop-color="#222222"/><stop offset="1" stop-color="#171717"/></radialGradient><radialGradient cx="202.11579" cy="231.507" r="25.3071" gradientUnits="userSpaceOnUse" id="color-2"><stop offset="0" stop-color="#909090"/><stop offset="1" stop-color="#676767"/></radialGradient><linearGradient x1="202.11859" y1="237.4233" x2="191.91849" y2="240.1824" gradientUnits="userSpaceOnUse" id="color-3"><stop offset="0" stop-color="#000000"/><stop offset="1" stop-color="#2b2b2b"/></linearGradient><radialGradient cx="219.51499" cy="231.8851" r="28.0925" gradientUnits="userSpaceOnUse" id="color-4"><stop offset="0" stop-color="#303131"/><stop offset="1" stop-color="#0d0d0d"/></radialGradient><linearGradient x1="207.50539" y1="233.2659" x2="195.55219" y2="237.2733" gradientUnits="userSpaceOnUse" id="color-5"><stop offset="0" stop-color="#000000"/><stop offset="1" stop-color="#2b2b2b"/></linearGradient><linearGradient x1="207.82719" y1="232.4452" x2="198.43309" y2="239.5738" gradientUnits="userSpaceOnUse" id="color-6"><stop offset="0" stop-color="#000000"/><stop offset="1" stop-color="#2b2b2b"/></linearGradient><linearGradient x1="206.57439" y1="221.0218" x2="194.76009" y2="241.3179" gradientUnits="userSpaceOnUse" id="color-7"><stop offset="0" stop-color="#000000"/><stop offset="1" stop-color="#2b2b2b"/></linearGradient></defs><g transform="translate(-179.36563,-185.97197)"><g data-paper-data="{&quot;isPaintingLayer&quot;:true}" fill-rule="nonzero" stroke="none" stroke-linejoin="miter" stroke-miterlimit="10" stroke-dasharray="" stroke-dashoffset="0" style="mix-blend-mode: normal"><g data-paper-data="{&quot;index&quot;:null}"><path d="M193.68219,231.9465c-3.1415,-4.6122 -4.3334,-10.4637 -6.0769,-16.2565c-2.1349,-7.1359 -5.0717,-14.564 -4.0804,-22.1351c0.4559,-3.4818 4.5823,-6.3994 7.9883,-7.3013c3.2552,-0.828 7.4368,0.1884 9.3363,2.8029c4.0086,5.5208 5.2895,12.7807 6.818,19.56c1.506,6.6792 3.2609,13.1671 1.9973,19.4198c-0.5555,3.4525 -3.8577,6.0657 -6.9324,6.929c-2.7293,0.73 -6.7639,-0.7132 -9.0502,-3.0188z" fill="url(#color-1)" stroke-width="2.2044" stroke-linecap="butt"/><path d="M187.45249,214.0069c0.2955,1.612 0.5427,6.3653 -0.244,5.1991c-2.7446,-3.9946 -5.3799,-10.2037 -6.919,-15.537c-0.8338,-2.8925 -1.2501,-6.0079 -0.6175,-9.2831c0.2263,-1.1688 2.5245,-3.6695 3.2706,-3.4771c0.9075,0.2577 -0.1402,3.2588 -0.0338,4.8759c0.1294,1.5976 0.0057,3.2214 0.228,4.7185c1.2913,4.5917 3.4186,8.8799 4.3157,13.5037z" fill="#2b2b2b" stroke-width="1.62112" stroke-linecap="round"/><path d="M186.08289,209.165l-1.3043,-2.0387l21.4835,-6.2028l0.9724,2.6328z" fill="#2b2b2b" stroke-width="3.89153" stroke-linecap="butt"/><path d="M183.61869,204.6996l-0.8192,-1.9939l22.098,-7.0392l1.0113,2.962z" fill="#2b2b2b" stroke-width="3.74602" stroke-linecap="butt"/></g><path d="M220.21419,235.0204c1.3911,3.789 0.1232,9.4221 -3.0194,11.8395c-4.3919,3.2055 -10.8927,4.5601 -16.3868,2.6287c-4.7444,-1.6711 -7.7105,-7.4598 -9.6206,-12.3122c-1.7445,-4.4275 -2.9981,-10.4749 -0.4711,-14.2659c3.3091,-4.9868 9.6351,-10.3429 15.0921,-8.0118c7.4094,3.1619 11.55,12.3965 14.4058,20.1217z" data-paper-data="{&quot;index&quot;:null}" fill="url(#color-2)" stroke-width="10.67582" stroke-linecap="butt"/><path d="M196.98229,239.1116c4.1368,2.3684 8.6196,8.5826 9.0344,13.3044c0.2283,2.6337 -5.45,3.0399 -7.8125,1.828c-2.7673,-1.5669 -4.2828,-5.312 -4.5618,-8.5231c-0.2103,-2.4457 1.2909,-7.5877 3.3399,-6.6093z" data-paper-data="{&quot;index&quot;:null}" fill="url(#color-3)" stroke-width="1.04727" stroke-linecap="round"/><path d="M210.64439,215.8382c4.1916,3.381 7.1983,8.4229 9.4341,13.1343c1.7436,3.6854 2.931,7.9085 2.6857,11.9421c-0.141,2.2973 -2.5368,5.0047 -4.05,5.6056c-0.8174,0.3202 -0.0773,-2.5504 -0.4455,-3.7685c-1.4673,-4.8584 -2.4756,-9.9414 -4.8164,-14.4764c-1.6307,-3.1539 -4.4211,-5.2466 -6.586,-7.8985c-1.539,-1.8799 -5.0184,-4.6509 -3.9762,-5.7552c0.8455,-1.1632 5.5796,-0.5324 7.7543,1.2166z" data-paper-data="{&quot;index&quot;:null}" fill="url(#color-4)" stroke-width="1" stroke-linecap="round"/><path d="M201.28569,235.7097c4.8911,1.7888 10.7408,7.985 11.4585,13.9347c0.4419,3.6789 -5.4826,6.4878 -8.7504,5.1992c-3.5047,-1.3846 -5.1832,-6.8739 -5.6526,-10.9433c-0.3603,-3.158 0.6379,-9.2716 2.9445,-8.1906z" data-paper-data="{&quot;index&quot;:null}" fill="url(#color-5)" stroke-width="1.04727" stroke-linecap="round"/><path d="M206.49469,234.0757c4.1152,1.1683 9.6743,8.1273 10.5853,13.5399c0.5365,3.216 -3.824,6.9093 -6.7769,5.9723c-3.4809,-1.1103 -5.3955,-6.3683 -6.0273,-10.1536c-0.5642,-3.3802 -0.068,-10.281 2.2189,-9.3586z" data-paper-data="{&quot;index&quot;:null}" fill="url(#color-6)" stroke-width="1.04727" stroke-linecap="round"/><path d="M216.73579,229.0116c1.5103,4.0819 -1.3162,9.093 -4.634,11.7928c-3.2409,2.6553 -8.9623,3.8415 -13.3882,2.7452c-2.0063,-0.5058 -1.0303,-4.1599 -0.0804,-5.7742c1.2367,-2.1026 4.9376,-2.2461 5.9366,-4.5054c1.511,-2.9921 -2.0258,-8.2216 1.3366,-10.3915c3.266,-0.9488 9.4481,2.4252 10.8294,6.1331z" data-paper-data="{&quot;index&quot;:null}" fill="url(#color-7)" stroke-width="1.04727" stroke-linecap="round"/></g></g></svg>