<svg version="1.1" xmlns="http://www.w3.org/2000/svg" xmlns:xlink="http://www.w3.org/1999/xlink" width="35.86917" height="73.84156" viewBox="0,0,35.86917,73.84156"><defs><radialGradient cx="288.71748" cy="198.4814" r="42.4534" gradientUnits="userSpaceOnUse" id="color-1"><stop offset="0" stop-color="#222222"/><stop offset="1" stop-color="#171717"/></radialGradient><linearGradient x1="302.88088" y1="242.1051" x2="292.02138" y2="244.8896" gradientUnits="userSpaceOnUse" id="color-2"><stop offset="0" stop-color="#000000"/><stop offset="1" stop-color="#2b2b2b"/></linearGradient><linearGradient x1="286.01988" y1="247.9167" x2="275.71718" y2="246.5284" gradientUnits="userSpaceOnUse" id="color-3"><stop offset="0" stop-color="#000000"/><stop offset="1" stop-color="#2b2b2b"/></linearGradient><linearGradient x1="295.87198" y1="249.0056" x2="284.56158" y2="248.1598" gradientUnits="userSpaceOnUse" id="color-4"><stop offset="0" stop-color="#000000"/><stop offset="1" stop-color="#2b2b2b"/></linearGradient><linearGradient x1="305.48258" y1="223.2684" x2="279.28798" y2="219.1745" gradientUnits="userSpaceOnUse" id="color-5"><stop offset="0" stop-color="#909090"/><stop offset="1" stop-color="#676767"/></linearGradient><radialGradient cx="286.35528" cy="235.4639" r="23.1418" gradientUnits="userSpaceOnUse" id="color-6"><stop offset="0" stop-color="#303131"/><stop offset="1" stop-color="#0d0d0d"/></radialGradient></defs><g transform="translate(-268.94776,-187.98366)"><g data-paper-data="{&quot;isPaintingLayer&quot;:true}" fill-rule="nonzero" stroke="none" stroke-linejoin="miter" stroke-miterlimit="10" stroke-dasharray="" stroke-dashoffset="0" style="mix-blend-mode: normal"><g data-paper-data="{&quot;index&quot;:null}"><path d="M277.42148,236.8341c-2.545,-6.642 -3.6388,-13.9017 -4.1767,-21.1509c-0.5569,-7.4914 -1.5148,-15.3472 1.2245,-22.4747c1.2597,-3.2778 5.9553,-5.1463 9.4778,-5.2242c3.3586,-0.0416 7.1852,1.9272 8.4186,4.9143c2.602,6.3069 1.9465,13.5084 2.0406,20.6134c0.0956,7.3578 0.7327,14.9325 -2.0247,21.7872c-1.377,3.3966 -5.0686,5.6832 -8.1099,6.0716c-3.08,0.2397 -5.9456,-2.2114 -6.8502,-4.5367z" fill="url(#color-1)" stroke-width="2.2044" stroke-linecap="butt"/><path d="M274.96638,217.5021c0.0231,2.0108 -1.352,7.8526 -2.0732,6.1731c-2.4406,-5.7549 -3.3146,-14.315 -3.8819,-21.3482c-0.2425,-2.9959 0.1938,-6.1336 1.5769,-9.1691c0.494,-1.0831 2.203,-2.1157 3.9948,-2.6131c0.7137,-0.2447 1.4728,0.2922 1.4537,0.9973c-0.0765,2.8183 -2.2225,5.8318 -2.3036,8.7018c-0.1517,5.7191 1.5376,11.4169 1.2333,17.2582z" fill="#2b2b2b" stroke-width="1.62112" stroke-linecap="round"/><path d="M273.49818,210.9507l0.3617,-3.4548l21.0471,-1.7935l0.3278,2.7875z" fill="#2b2b2b" stroke-width="3.89153" stroke-linecap="butt"/><path d="M273.25708,204.7207l-0.4897,-3.2778l22.0728,-1.1518l0.2885,3.1166z" fill="#2b2b2b" stroke-width="3.74602" stroke-linecap="butt"/></g><path d="M301.97128,243.7815c2.6532,2.2702 3.5465,7.564 2.2745,10.7324c-1.1173,2.7813 -5.7959,4.5653 -7.9997,2.6888c-2.5956,-2.2171 -2.9082,-7.7299 -1.513,-10.9278c1.0606,-2.5595 5.1077,-4.2666 7.2382,-2.4934z" data-paper-data="{&quot;index&quot;:null}" fill="url(#color-2)" stroke-width="0.97846" stroke-linecap="round"/><path d="M282.39468,248.6803c1.8682,2.4326 3.3952,7.4114 1.8859,9.5457c-1.3409,1.9098 -5.7948,0.644 -7.3904,-1.2555c-1.8157,-2.3518 -2.419,-6.8021 -0.8415,-8.9927c1.2882,-1.7819 4.9867,-1.0675 6.346,0.7025z" data-paper-data="{&quot;index&quot;:null}" fill="url(#color-3)" stroke-width="0.97846" stroke-linecap="round"/><path d="M291.71418,249.255c2.355,2.3806 4.5875,7.3303 3.0102,9.9783c-1.6414,2.7495 -7.0604,3.5126 -9.4193,1.3082c-2.2137,-2.0997 -1.3849,-7.2415 0.2872,-10.0414c1.1552,-1.9292 4.5704,-2.6007 6.1219,-1.2451z" data-paper-data="{&quot;index&quot;:null}" fill="url(#color-4)" stroke-width="0.97846" stroke-linecap="round"/><g data-paper-data="{&quot;index&quot;:null}" stroke-width="9.97438" stroke-linecap="butt"><path d="M302.10008,244.0468c0.019,3.7059 -2.0756,8.1347 -5.3831,9.3422c-4.829,1.7813 -11.0799,1.6784 -15.4371,-1.6295c-3.6211,-2.7476 -3.9679,-8.7488 -4.2752,-13.4346c-0.2391,-3.6783 -0.0904,-8.3324 2.6123,-10.4391c5.0585,-3.9402 12.3843,-9.4603 17.5744,-5.7707c5.9185,4.1751 5.0953,14.462 4.9087,21.9317z" fill="url(#color-5)"/><path d="M299.09998,243.3937c-0.0426,3.9126 -1.0907,9.5517 -4.5913,10.5519c-6.6166,1.9233 -14.7627,0.9572 -20.5829,-3.2185c-3.4564,-2.4833 -2.2944,-8.6007 -2.3752,-13.0409c-0.0317,-4.1268 -0.8235,-9.8542 2.3747,-12.0569c5.8898,-4.0504 15.0111,-7.8182 21.1369,-3.4641c5.5876,3.9079 4.0947,13.8991 4.0378,21.2285z" fill="url(#color-6)"/></g></g></g></svg>