<svg version="1.1" xmlns="http://www.w3.org/2000/svg" xmlns:xlink="http://www.w3.org/1999/xlink" width="85.86025" height="83.87999" viewBox="0,0,85.86025,83.87999"><defs><radialGradient cx="244.94866" cy="114.6098" r="29.4852" gradientUnits="userSpaceOnUse" id="color-1"><stop offset="0" stop-color="#cc0000"/><stop offset="1" stop-color="#000000"/></radialGradient><radialGradient cx="260.62186" cy="133.8992" r="82.997" gradientUnits="userSpaceOnUse" id="color-2"><stop offset="0" stop-color="#303131"/><stop offset="1" stop-color="#171717"/></radialGradient><radialGradient cx="269.22856" cy="113.9798" r="17.8479" gradientUnits="userSpaceOnUse" id="color-3"><stop offset="0" stop-color="#cc0000"/><stop offset="1" stop-color="#000000"/></radialGradient><radialGradient cx="251.19806" cy="70.7941" r="90.5457" gradientUnits="userSpaceOnUse" id="color-4"><stop offset="0" stop-color="#222222"/><stop offset="1" stop-color="#171717"/></radialGradient><linearGradient x1="277.19346" y1="74.3254" x2="213.49526" y2="75.4708" gradientUnits="userSpaceOnUse" id="color-5"><stop offset="0" stop-color="#ffffff"/><stop offset="1" stop-color="#ffffff" stop-opacity="0"/></linearGradient><radialGradient cx="267.38836" cy="78.6425" r="55.7988" gradientUnits="userSpaceOnUse" id="color-6"><stop offset="0" stop-color="#cccccc"/><stop offset="1" stop-color="#7f7f7f"/></radialGradient><linearGradient x1="213.83356" y1="81.9257" x2="192.86436" y2="81.9257" gradientUnits="userSpaceOnUse" id="color-7"><stop offset="0" stop-color="#131313"/><stop offset="1" stop-color="#000000"/></linearGradient></defs><g transform="translate(-192.86434,-60.45726)"><g data-paper-data="{&quot;isPaintingLayer&quot;:true}" fill-rule="nonzero" stroke-miterlimit="10" stroke-dasharray="" stroke-dashoffset="0" style="mix-blend-mode: normal"><g data-paper-data="{&quot;index&quot;:null}" stroke="none" stroke-linejoin="miter"><path d="M237.49666,76.4352c8.7666,0.687 17.5929,5.4663 23.7957,11.4812c5.1022,4.9506 8.2294,12.4688 8.4407,19.6032c0.671,7.8058 0.2932,17.9973 -5.9416,22.7056c-7.4649,5.637 -19.1534,-0.0698 -28.1221,2.784c-3.9752,1.2605 -5.0734,8.1423 -9.4578,8.804c-4.5243,0.834 -9.9194,-1.3066 -13.2131,-4.9899c-6.0538,-6.786 -12.2024,-15.2558 -12.3715,-24.3449c-0.1842,-10.1898 3.8472,-20.7723 10.7488,-27.5632c6.6775,-6.4819 17.2872,-9.1619 26.1209,-8.48z" fill="#7f7f7f" stroke-width="4.48437" stroke-linecap="butt"/><path d="M249.22106,112.8764c0.7661,3.1679 -1.4954,7.8729 -4.5947,9.572c-4.5673,2.5013 -10.2517,2.2817 -15.2617,1.5642c-3.3348,-0.488 -7.6743,-1.9395 -8.625,-5.0153c-1.6317,-5.2952 -2.8295,-15.1123 1.6942,-16.5547c5.9683,-1.9031 12.7337,7.0434 19.464,9.7248c2.2985,0.9139 6.806,-1.4151 7.3232,0.709z" fill="url(#color-1)" stroke-width="1.39418" stroke-linecap="round"/><path d="M257.18396,105.6163v0l0.0293,-0.0013z" fill="#54d242" stroke-width="0.67766" stroke-linecap="butt"/><path d="M242.27576,105.7147c0.0016,0.0223 0.0036,0.0492 0.006,0.0805c0.0023,0.0313 0.0044,0.0581 0.006,0.0805c0.0014,0.0179 0.0024,0.0313 0.0024,0.0313c0,0 -0.001,-0.0134 -0.0024,-0.0313c-0.0016,-0.0224 -0.0037,-0.0492 -0.006,-0.0805c-0.0024,-0.0313 -0.0044,-0.0582 -0.006,-0.0805c-0.0014,-0.0179 -0.0024,-0.0313 -0.0024,-0.0313c0,0 0.001,0.0134 0.0024,0.0313z" fill="#b2b2b2" stroke-width="4.48437" stroke-linecap="butt"/><path d="M267.21446,128.0116c-0.5331,5.41 -7.2403,10.7436 -13.8744,13.3439c-7.8803,3.0881 -17.7507,3.5698 -26.2872,2.3912c-7.0704,-0.9767 -14.4567,-4.0256 -17.3627,-8.6939c-6.4913,-10.4337 -11.2717,-22.7824 -8.9675,-34.5594c1.729,-8.8342 9.5437,-18.8743 20.7848,-22.9499c10.4438,-3.7837 24.5891,-1.3341 34.2224,2.9554c8.2067,3.6584 12.5672,11.5941 14.2507,18.7141c0.5448,3.014 -4.5978,5.8981 -8.5336,7.2811c-4.5031,1.5723 -10.0177,1.3778 -14.743,0.4767c-9.696,-1.8536 -17.1815,-8.8781 -27.2384,-9.0018c-4.4222,-0.0541 -7.6371,5.0412 -7.4948,8.2517c0.3336,7.4618 3.2144,14.8066 8.5113,20.7525c2.5473,2.8218 8.5201,3.7677 12.9971,3.2892c7.5082,-0.8106 13.7043,-6.0051 21.2468,-6.487c4.6106,-0.2941 12.6464,0.8815 12.4885,4.2362z" fill="url(#color-2)" stroke-width="1.68151" stroke-linecap="round"/><path d="M241.55696,136.4018c-0.0039,0.0221 -0.0086,0.0486 -0.0141,0.0795c-0.0054,0.0309 -0.0101,0.0574 -0.014,0.0795c-0.0031,0.0176 -0.0054,0.0309 -0.0054,0.0309c0,0 0.0023,-0.0133 0.0054,-0.0309c0.0039,-0.0221 0.0086,-0.0486 0.014,-0.0795c0.0055,-0.0309 0.0102,-0.0574 0.0141,-0.0795c0.0031,-0.0177 0.0054,-0.0309 0.0054,-0.0309c0,0 -0.0023,0.0132 -0.0054,0.0309z" fill="#b2b2b2" stroke-width="4.48437" stroke-linecap="butt"/><path d="M263.48496,111.5332c2.6027,-1.3739 5.2891,-7.7358 6.5622,-6.2859c1.8908,2.1566 0.691,8.9863 0.1124,13.3599c-0.3368,1.3621 -1.5391,2.6773 -2.7407,3.1169c-2.1025,0.7743 -5.2915,2.023 -6.7047,0.3361c-2.2769,-2.7206 -2.9254,-7.0652 -1.9471,-10.4754c0.4611,-1.5949 3.3281,0.6782 4.7179,-0.0516z" fill="url(#color-3)" stroke-width="1.39418" stroke-linecap="round"/></g><path d="M208.49006,119.4109c-4.2411,2.0425 -9.6961,3.5802 -14.0202,1.783c-2.2759,-0.6969 0.3332,-4.3607 0.5261,-6.8838c0.7204,-9.4411 -1.2982,-19.4656 1.9696,-28.371c2.9457,-7.5019 9.0508,-13.9215 15.7772,-18.49c6.4916,-4.4081 14.6452,-7.1196 22.5052,-6.9872c8.4195,0.1274 16.9558,2.8913 24.2259,7.2496c5.4148,3.2459 9.8487,8.5941 12.5058,14.2435c2.7734,5.8874 2.0795,12.6891 3.4701,19.2424c0.3835,1.8071 2.7555,3.4546 1.7738,5.2471c-1.0069,1.8144 -3.946,1.3592 -5.9901,1.7477c-5.2529,0.9982 -10.3128,1.5961 -15.5059,1.7308c-12.4004,0.3419 -25.0043,-2.7562 -36.998,-0.5114c-4.7289,1.1134 -6.0441,7.9718 -10.2395,9.9993z" data-paper-data="{&quot;index&quot;:null}" fill="url(#color-4)" stroke="none" stroke-width="0.90146" stroke-linecap="round" stroke-linejoin="miter"/><path d="M214.77406,82.1c-0.035,3.26 -1.813,6.38 -1.7,9.65c0.103,2.981 1.986,5.723 2.1,8.7c0.027,0.761 -0.947,1.523 -1.65,1.5c-0.607,-0.027 -0.516,-0.749 -0.75,-1.5c-0.936,-3.004 -2.41,-5.961 -2.4,-9.1c-0.098,-3.053 1.215,-5.979 2.15,-8.9c0.209,-0.736 0.286,-1.302 0.85,-1.35c0.561,-0.069 1.397,0.183 1.4,1z" data-paper-data="{&quot;index&quot;:null}" fill="#7f7f7f" stroke="none" stroke-width="1" stroke-linecap="round" stroke-linejoin="miter"/><path d="M272.76946,76.0624c5.3597,4.4388 5.8825,14.5924 2.6936,20.8238c-2.5068,4.8947 -10.145,6.1581 -15.3725,4.9147c-3.6541,-0.8697 -2.697,-10.1222 -4.9439,-9.8318c-2.8303,0.3807 -1.2581,10.2861 -5.2104,11.174c-10.5662,2.3674 -23.797,3.7236 -32.3912,-2.8963c-5.4821,-4.2227 -4.8749,-17.1719 1.0439,-20.7621c9.8954,-5.999 23.2038,-0.5977 34.7619,-1.3982c6.5218,-0.4368 14.4655,-6.3517 19.4186,-2.0241z" data-paper-data="{&quot;index&quot;:null}" fill="url(#color-5)" stroke="url(#color-6)" stroke-width="2.5764" stroke-linecap="round" stroke-linejoin="round"/><path d="M213.82406,82.65c0.208,3.214 -3.073,5.922 -3.15,9.15c-0.074,3.111 2.637,5.858 2.75,9c0.033,0.804 -1.604,0.318 -2.4,0.5c-3.106,0.709 -6.272,1.91 -9.5,2.35c-2.523,0.343 -6.045,2.189 -7.6,0.25c-2.037,-2.669 -0.621,-6.818 0,-10c0.613,-3.137 1.023,-7.04 3.6,-8.9c3.451,-2.494 8.181,-2.072 12.5,-2.7c1.259,-0.183 3.717,-0.909 3.8,0.35z" data-paper-data="{&quot;index&quot;:null}" fill="url(#color-7)" stroke="none" stroke-width="1" stroke-linecap="round" stroke-linejoin="miter"/></g></g></svg>