<svg version="1.1" xmlns="http://www.w3.org/2000/svg" xmlns:xlink="http://www.w3.org/1999/xlink" width="50.2723" height="37.64186" viewBox="0,0,50.2723,37.64186"><defs><linearGradient x1="226.95041" y1="183.5892" x2="219.12921" y2="219.5665" gradientUnits="userSpaceOnUse" id="color-1"><stop offset="0" stop-color="#303131"/><stop offset="1" stop-color="#0d0d0d"/></linearGradient></defs><g transform="translate(-224.9749,-187.39047)"><g data-paper-data="{&quot;isPaintingLayer&quot;:true}" fill="url(#color-1)" fill-rule="nonzero" stroke="none" stroke-width="2.61511" stroke-linecap="round" stroke-linejoin="miter" stroke-miterlimit="10" stroke-dasharray="" stroke-dashoffset="0" style="mix-blend-mode: normal"><path d="M274.20331,194.4123c2.0662,2.1645 0.6499,9.5642 -0.6855,13.9541c-1.3603,4.46 -4.1551,8.3786 -7.0315,10.1148c-6.0859,4.0165 -12.5861,6.4047 -18.9274,6.5447c-5.5752,0.1229 -11.176,-1.5079 -15.8469,-5.5769c-3.0864,-3.0586 -5.4494,-8.679 -6.3497,-14.8275c-0.6984,-5.1601 -0.7253,-14.8447 2.2744,-16.7246c4.4409,-2.7211 8.4243,6.3509 13.0788,7.5989c6.5284,1.7505 13.855,1.477 20.8703,1.2572c3.9858,-0.124 9.1517,-5.5606 12.6175,-2.3407z" data-paper-data="{&quot;index&quot;:null}"/></g></g></svg>