<svg version="1.1" xmlns="http://www.w3.org/2000/svg" xmlns:xlink="http://www.w3.org/1999/xlink" width="42.20629" height="74.34092" viewBox="0,0,42.20629,74.34092"><defs><radialGradient cx="219.72868" cy="176.6801" r="49.4014" gradientUnits="userSpaceOnUse" id="color-1"><stop offset="0" stop-color="#222222"/><stop offset="1" stop-color="#171717"/></radialGradient><radialGradient cx="229.46508" cy="148.4513" r="56.0306" gradientUnits="userSpaceOnUse" id="color-2"><stop offset="0" stop-color="#ffffff"/><stop offset="1" stop-color="#000000"/></radialGradient><linearGradient x1="194.40658" y1="128.8483" x2="235.08358" y2="134.7894" gradientUnits="userSpaceOnUse" id="color-3"><stop offset="0" stop-color="#303131"/><stop offset="1" stop-color="#0d0d0d"/></linearGradient></defs><g transform="translate(-190.7536,-131.27558)"><g data-paper-data="{&quot;isPaintingLayer&quot;:true}" fill-rule="nonzero" stroke="none" stroke-linejoin="miter" stroke-miterlimit="10" stroke-dasharray="" stroke-dashoffset="0" style="mix-blend-mode: normal"><path d="M219.50068,153.7909c2.6546,7.389 3.062,14.4638 2.9248,23.619c-0.1373,9.1553 -0.8082,16.036 -3.6284,23.3046c-1.1369,2.9298 -4.507,5.2448 -7.6294,4.8601c-3.2683,0.078 -6.9651,-2.3768 -8.179,-5.6187c-2.7996,-7.4623 -3.062,-14.4637 -2.9248,-23.619c0.1373,-9.1552 0.7444,-16.1837 3.6284,-23.3046c1.2847,-3.205 4.763,-4.879 7.7418,-4.4988c3.2777,-0.0799 6.8891,1.9414 8.0666,5.2574z" data-paper-data="{&quot;index&quot;:null}" fill="url(#color-1)" stroke-width="2.36307" stroke-linecap="butt"/><path d="M216.76478,134.6456c4.4278,-0.2027 9.554,4.1255 13.4289,9.2056c1.5075,2.0298 2.2459,6.6262 2.7662,10.9152c-0.0744,2.5146 -0.0074,7.1891 -1.5171,8.1589c-6.0094,3.858 -12.3341,4.7411 -17.9074,3.6345c-6.5036,-1.2965 -13.2845,-3.3408 -18.2542,-10.4785c-1.383,-2.0003 0.9383,-9.3117 2.7083,-10.9679c6.0842,-6.1794 12.6734,-10.1743 18.7753,-10.4678z" data-paper-data="{&quot;index&quot;:null}" fill="url(#color-2)" stroke-width="2.18641" stroke-linecap="round"/><path d="M214.18588,132.598c3.9163,3.2992 2.6964,16.4106 4.6718,23.2672c1.1433,2.9283 2.9592,4.3895 4.4911,5.3434c2.2956,1.679 7.797,1.2012 7.4869,2.6559c-0.3118,1.4488 -5.9087,4.8528 -8.7518,5.1137c-8.5011,0.8834 -17.2083,1.7707 -25.0112,-2.0905c-3.0361,-1.2161 -6.6152,-5.5939 -6.2996,-12.5676c0.3025,-6.6517 4.563,-12.9725 7.599,-15.9353c5.2631,-4.7369 11.417,-9.4857 15.8138,-5.7868z" data-paper-data="{&quot;index&quot;:null}" fill="url(#color-3)" stroke-width="2.18641" stroke-linecap="round"/></g></g></svg>