<svg version="1.1" xmlns="http://www.w3.org/2000/svg" xmlns:xlink="http://www.w3.org/1999/xlink" width="78.53458" height="79.19881" viewBox="0,0,78.53458,79.19881"><defs><radialGradient cx="274.17689" cy="145.5252" r="97.011" gradientUnits="userSpaceOnUse" id="color-1"><stop offset="0" stop-color="#303131"/><stop offset="1" stop-color="#0d0d0d"/></radialGradient><radialGradient cx="270.53969" cy="159.2839" r="50.0481" gradientUnits="userSpaceOnUse" id="color-2"><stop offset="0" stop-color="#909090"/><stop offset="1" stop-color="#676767"/></radialGradient><radialGradient cx="263.96519" cy="169.6833" r="21.2266" gradientUnits="userSpaceOnUse" id="color-3"><stop offset="0" stop-color="#ffff6d"/><stop offset="1" stop-color="#ffff00"/></radialGradient></defs><g transform="translate(-207.46865,-133.68503)"><g data-paper-data="{&quot;isPaintingLayer&quot;:true}" fill-rule="nonzero" stroke="none" stroke-linejoin="miter" stroke-miterlimit="10" stroke-dasharray="" stroke-dashoffset="0" style="mix-blend-mode: normal"><g data-paper-data="{&quot;index&quot;:null}"><g><path d="M261.33579,135.8385c7.8446,0.8678 17.7966,4.4424 20.4321,12.8086c4.6933,11.7285 1.6106,25.6828 -2.0898,37.3218c-2.5747,7.8766 -8.1236,15.9454 -14.8426,18.1545c-13.1156,4.2953 -28.3011,6.3716 -41.4653,1.0598c-6.4384,-2.6412 -6.8739,-13.7354 -8.2953,-21.2505c-1.8343,-9.7312 -3.4408,-19.7629 -1.399,-28.775c1.2792,-6.0231 5.8557,-11.2377 10.6477,-13.0375c11.6993,-4.6057 24.4708,-7.7187 37.0122,-6.2817z" fill="#7f7f7f" stroke-width="5.27279" stroke-linecap="butt"/><path d="M261.17979,138.6836c2.4913,1.0223 4.0287,2.4109 4.0185,3.9232c-0.0103,1.5122 -1.5664,2.8652 -4.0711,3.8299c-2.5047,0.9637 -5.9591,1.538 -9.7671,1.4941c-3.808,-0.0439 -7.2541,-0.6978 -9.7453,-1.719c-2.4912,-1.0224 -4.0287,-2.411 -4.0184,-3.9232c0.0102,-1.5123 1.5663,-2.8652 4.071,-3.83c2.5047,-0.9636 5.9591,-1.538 9.7671,-1.4941c3.808,0.0439 7.2541,0.6978 9.7453,1.7191z" fill="#000000" stroke-width="1.0793" stroke-linecap="round"/></g><path d="M265.85579,146.8395c0,0 0.0008,0.0062 0.0019,0.0156c0.0011,0.0093 0.0025,0.0217 0.0042,0.0363c0.0017,0.0145 0.0032,0.0269 0.0043,0.0363c0.0011,0.0093 0.0018,0.0155 0.0018,0.0155c0,0 -0.0007,-0.0062 -0.0018,-0.0155c-0.0011,-0.0094 -0.0026,-0.0218 -0.0043,-0.0363c-0.0017,-0.0146 -0.0031,-0.027 -0.0042,-0.0363c-0.0011,-0.0094 -0.0019,-0.0156 -0.0019,-0.0156z" fill="#848786" stroke-width="1.02251" stroke-linecap="butt"/><path d="M268.17799,135.7792c3.3363,0.1434 -25.133,1.404 -30.7502,5.5015c-2.714,1.9892 8.7093,6.7408 13.6237,6.6108c5.4849,-0.1463 16.7674,-4.7455 15.1076,-7.1414c-2.0537,-3.1577 -24.5117,-4.588 -23.2334,-5.0102c1.2829,-0.4278 23.8218,-5.2718 32.7628,1.6052c7.9901,6.1489 9.8521,19.8245 10.2963,30.7139c0.35,8.7525 -4.3545,16.0622 -7.7737,23.4321c-2.5592,5.5308 -5.3067,11.8336 -10.0148,15.5039c-5.1805,3.5698 -11.8354,4.4093 -18.0029,5.0096c-8.0748,0.7805 -17.2447,2.0604 -24.9971,-1.497c-5.6655,-2.5997 -10.2843,-9.2515 -12.4732,-15.9909c-3.8434,-11.2314 -6.123,-23.7329 -4.942,-35.8868c0.7179,-7.3733 4.3724,-16.3089 10.5929,-18.6934c15.6398,-5.9937 46.413,-4.4881 49.804,-4.1573z" fill="url(#color-1)" stroke-width="1.07711" stroke-linecap="round"/></g><g data-paper-data="{&quot;index&quot;:null}"><path d="M240.46399,155.5263l35.6014,-2.6868l5.2351,7.1739l-1.1187,20.8777l-6.5359,5.9361l-30.307,1.9895l-8.4236,-5.1813l0.8775,-20.7744z" fill="url(#color-2)" stroke-width="5.51485" stroke-linecap="round"/><path d="M260.35529,165.5219c0.7736,-2.468 0.6952,-7.5572 1.3247,-7.4163c0.5067,0.1053 1.5131,5.5419 2.7032,8.2925c0.8096,1.8735 1.3265,3.9956 3.0726,5.4511c0.551,0.4598 1.9492,-0.2181 2.2842,-0.9277c1.3433,-2.8399 1.7698,-9.8728 2.1755,-8.8085c0.4786,1.0623 2.3824,9.8278 0.1562,14.4109c-1.4542,2.9932 -5.6762,5.892 -10.0974,6.3436c-4.3757,0.4672 -10.2113,-1.1355 -11.8162,-4.0533c-2.8147,-5.1155 -0.2751,-15.234 0.4886,-16.6764c0.655,-1.3467 1.2913,6.5854 3.0962,9.6282c0.4516,0.7598 2.4347,1.5784 3.1159,0.9177c2.1423,-2.077 2.7257,-4.7058 3.4965,-7.1618z" fill="url(#color-3)" stroke-width="1.4384" stroke-linecap="butt"/></g></g></g></svg>